<?xml version="1.0" encoding="utf-8"?>
<!-- Generator: Adobe Illustrator 20.0.0, SVG Export Plug-In . SVG Version: 6.00 Build 0)  -->
<svg version="1.1" id="图层_1" xmlns="http://www.w3.org/2000/svg" xmlns:xlink="http://www.w3.org/1999/xlink" x="0px" y="0px"
	 viewBox="0 0 160 50" style="enable-background:new 0 0 160 50;" xml:space="preserve">
<style type="text/css">
	.st0{fill:#FFFFFF;}
	.st1{fill:#C0392B;}
</style>
<g>
	
		<rect x="12.7" y="13.9" transform="matrix(0.7071 -0.7071 0.7071 0.7071 -9.7069 21.6777)" class="st0" width="17.3" height="17.3"/>
	
		<rect x="22.1" y="32.9" transform="matrix(0.7071 -0.7071 0.7071 0.7071 -17.5653 27.1459)" class="st0" width="3.8" height="3.8"/>
</g>
<polygon class="st1" points="26.7,22.6 19.1,18.3 19.1,26.9 "/>
<g>
	<path class="st0" d="M67.5,29.1c0,0.8,0,1.4,0,1.8c-3.3,0.8-7,1.8-10.9,2.9l-0.4-1.9C60.6,30.9,64.3,30,67.5,29.1z M56.6,14.5h10.9v1.6H56.6
		V14.5z M61,10.1l1.5,0.4c-1.3,4.8-2.7,9.2-4,13.1v1.6h-1.4v-1.8C58.6,19,59.9,14.6,61,10.1z M57.8,23.6h9.4v1.6h-9.4V23.6z
		 M62,18.3h1.6v21.4H62V18.3z M81.3,12.3h1.5v1.8C79.1,19,74.2,22.7,68,25.2c-0.3-0.4-0.5-0.9-0.9-1.5c5.9-2.4,10.6-5.8,14.1-10.1
		V12.3z M67.8,36.2h17.6v1.6H67.8V36.2z M69.5,12.3H82V14H69.5V12.3z M69.6,27.1h13.9v1.6H69.6V27.1z M75.8,28.1h1.6V37h-1.6V28.1z
		 M77.1,18.6c3.4,2.2,6.3,4,8.8,5.6l-1.1,1.5c-2.5-1.8-5.4-3.8-8.6-5.9L77.1,18.6z"/>
	<path class="st0" d="M88.4,36.7h29.4v1.5H88.4V36.7z M89,13h28.1v1.5H89V13z M92.4,17.8h1.9v19.6h-1.9V17.8z M93.1,17.8h19.4v1.5H93.1V17.8z
		 M93.3,22.6h19.4v1.5H93.3V22.6z M93.3,27.2h19.5v1.5H93.3V27.2z M93.4,32h19.4v1.5H93.4V32z M102,10.2h1.8v8.1H102V10.2z
		 M111.6,17.7h1.8v19.8h-1.8V17.7z"/>
	<path class="st0" d="M124,10.5h1.9v25.8c0,1.4-0.7,2.3-2.1,2.5c-0.6,0.2-1.7,0.3-3.3,0.3c0-0.6-0.1-1.2-0.4-1.9c1.2,0.1,2,0.1,2.6,0.1
		c0.8,0,1.3-0.5,1.3-1.4V10.5z M128.9,23.2c0,0.6,0,1.2,0,1.8c-2.9,0.9-5.8,1.9-8.5,2.9l-0.1-1.8C123.1,25.2,126,24.2,128.9,23.2z
		 M120.4,16.1h8.5v1.6h-8.5V16.1z M137,19.2h1.6v1.6c-2.4,2.7-5.5,4.9-9.3,6.6l-1-1.4c3.3-1.3,6.1-3.2,8.6-5.6V19.2z M129.1,19h20.5
		v1.5h-20.5V19z M148,11.3l0.6,1.5c-6.3,0.4-12.3,0.8-18,1.1c-0.2-0.5-0.4-1-0.6-1.5C136.2,12.1,142.2,11.8,148,11.3z M131.1,27h1.5
		v12.5h-1.5V27z M132.4,14.6c1.1,0.9,2.1,1.8,3,2.6l-1.1,1.1c-1-0.9-2-1.8-3-2.8L132.4,14.6z M132,26.8h15v1.5h-15V26.8z
		 M132.1,36.6h14.4V38h-14.4V36.6z M132.3,31.7h14.3v1.4h-14.3V31.7z M138.5,13.1h1.5v12.6h-1.5V13.1z M138.5,27.5h1.5v9.9h-1.5
		V27.5z M140.5,19.2c2.5,3.2,5.6,5.2,9.3,6.1c-0.4,0.6-0.8,1.1-1.1,1.6c-3.9-1.4-7-3.8-9.3-7.1L140.5,19.2z M146.1,14.5l1.3,1.1
		c-1.1,1-2.2,1.9-3.4,2.8l-1-1.3C144.1,16.3,145.1,15.4,146.1,14.5z M146,27h1.5v12.5H146V27z"/>
</g>
</svg>
